<svg width="100" height="100" viewBox="0 0 100 100" fill="none" xmlns="http://www.w3.org/2000/svg">
<path d="M37.5001 41.6667C42.1025 41.6667 45.8334 37.9357 45.8334 33.3333C45.8334 28.731 42.1025 25 37.5001 25C32.8977 25 29.1667 28.731 29.1667 33.3333C29.1667 37.9357 32.8977 41.6667 37.5001 41.6667Z" stroke="#6889FF" stroke-width="1.5" stroke-linecap="round" stroke-linejoin="round"/>
<path d="M54.1666 8.33337H37.4999C16.6666 8.33337 8.33325 16.6667 8.33325 37.5V62.5C8.33325 83.3334 16.6666 91.6667 37.4999 91.6667H62.4999C83.3333 91.6667 91.6666 83.3334 91.6666 62.5V41.6667" stroke="#6889FF" stroke-width="1.5" stroke-linecap="round" stroke-linejoin="round"/>
<path d="M75 33.3334V8.33337L83.3333 16.6667" stroke="#6889FF" stroke-width="1.5" stroke-linecap="round" stroke-linejoin="round"/>
<path d="M75.0001 8.33337L66.6667 16.6667" stroke="#6889FF" stroke-width="1.5" stroke-linecap="round" stroke-linejoin="round"/>
<path d="M11.125 78.9584L31.6667 65.1667C34.9583 62.9584 39.7083 63.2084 42.6667 65.75L44.0417 66.9584C47.2917 69.75 52.5417 69.75 55.7917 66.9584L73.125 52.0834C76.375 49.2917 81.625 49.2917 84.875 52.0834L91.6667 57.9167" stroke="#6889FF" stroke-width="1.5" stroke-linecap="round" stroke-linejoin="round"/>
</svg>
