<svg width="48" height="48" viewBox="0 0 48 48" fill="none" xmlns="http://www.w3.org/2000/svg">
<path d="M16 24.4H30" stroke="#292D32" stroke-width="1.5" stroke-miterlimit="10" stroke-linecap="round" stroke-linejoin="round"/>
<path d="M16 32.4H24.76" stroke="#292D32" stroke-width="1.5" stroke-miterlimit="10" stroke-linecap="round" stroke-linejoin="round"/>
<path d="M20 12H28C32 12 32 10 32 8C32 4 30 4 28 4H20C18 4 16 4 16 8C16 12 18 12 20 12Z" stroke="#292D32" stroke-width="1.5" stroke-miterlimit="10" stroke-linecap="round" stroke-linejoin="round"/>
<path d="M32 8.04004C38.66 8.40004 42 10.86 42 20V32C42 40 40 44 30 44H18C8 44 6 40 6 32V20C6 10.88 9.34 8.40004 16 8.04004" stroke="#292D32" stroke-width="1.5" stroke-miterlimit="10" stroke-linecap="round" stroke-linejoin="round"/>
</svg>
