<svg width="39" height="38" viewBox="0 0 39 38" fill="none" xmlns="http://www.w3.org/2000/svg">
<path d="M1 8C1 3.58172 4.58172 0 9 0H31C35.4183 0 39 3.58172 39 8V30C39 34.4183 35.4183 38 31 38H9C4.58172 38 1 34.4183 1 30V8Z" fill="#6889FF"/>
<path d="M20 18.4299C21.7231 18.4299 23.12 17.0331 23.12 15.3099C23.12 13.5868 21.7231 12.1899 20 12.1899C18.2769 12.1899 16.88 13.5868 16.88 15.3099C16.88 17.0331 18.2769 18.4299 20 18.4299Z" stroke="white" stroke-width="1.5"/>
<path d="M11.62 13.49C13.59 4.83 26.42 4.84 28.38 13.5C29.53 18.58 26.37 22.88 23.6 25.54C21.59 27.48 18.41 27.48 16.39 25.54C13.63 22.88 10.47 18.57 11.62 13.49Z" stroke="white" stroke-width="1.5"/>
</svg>
