<svg width="43" height="50" viewBox="0 0 43 50" fill="none" xmlns="http://www.w3.org/2000/svg">
<path d="M23.4242 37V40C23.4242 42.3869 22.7155 44.6761 21.4539 46.364C20.1923 48.0518 18.4812 49 16.697 49H7.72727C5.94309 49 4.23198 48.0518 2.97037 46.364C1.70876 44.6761 1 42.3869 1 40V10C1 7.61305 1.70876 5.32387 2.97037 3.63604C4.23198 1.94821 5.94309 1 7.72727 1H16.697C18.4812 1 20.1923 1.94821 21.4539 3.63604C22.7155 5.32387 23.4242 7.61305 23.4242 10V13M32.3939 37L41.3636 25L32.3939 37ZM41.3636 25L32.3939 13L41.3636 25ZM41.3636 25H9.9697H41.3636Z" stroke="#444658" stroke-width="1.5" stroke-linecap="round" stroke-linejoin="round"/>
</svg>
