<svg width="38" height="38" viewBox="0 0 38 38" fill="none" xmlns="http://www.w3.org/2000/svg">
<path d="M0 8C0 3.58172 3.58172 0 8 0H30C34.4183 0 38 3.58172 38 8V30C38 34.4183 34.4183 38 30 38H8C3.58172 38 0 34.4183 0 30V8Z" fill="#6889FF"/>
<path d="M28.97 25.33C28.97 25.69 28.89 26.06 28.72 26.42C28.55 26.78 28.33 27.12 28.04 27.44C27.55 27.98 27.01 28.37 26.4 28.62C25.8 28.87 25.15 29 24.45 29C23.43 29 22.34 28.76 21.19 28.27C20.04 27.78 18.89 27.12 17.75 26.29C16.6 25.45 15.51 24.52 14.47 23.49C13.44 22.45 12.51 21.36 11.68 20.22C10.86 19.08 10.2 17.94 9.72 16.81C9.24 15.67 9 14.58 9 13.54C9 12.86 9.12 12.21 9.36 11.61C9.6 11 9.98 10.44 10.51 9.94C11.15 9.31 11.85 9 12.59 9C12.87 9 13.15 9.06 13.4 9.18C13.66 9.3 13.89 9.48 14.07 9.74L16.39 13.01C16.57 13.26 16.7 13.49 16.79 13.71C16.88 13.92 16.93 14.13 16.93 14.32C16.93 14.56 16.86 14.8 16.72 15.03C16.59 15.26 16.4 15.5 16.16 15.74L15.4 16.53C15.29 16.64 15.24 16.77 15.24 16.93C15.24 17.01 15.25 17.08 15.27 17.16C15.3 17.24 15.33 17.3 15.35 17.36C15.53 17.69 15.84 18.12 16.28 18.64C16.73 19.16 17.21 19.69 17.73 20.22C18.27 20.75 18.79 21.24 19.32 21.69C19.84 22.13 20.27 22.43 20.61 22.61C20.66 22.63 20.72 22.66 20.79 22.69C20.87 22.72 20.95 22.73 21.04 22.73C21.21 22.73 21.34 22.67 21.45 22.56L22.21 21.81C22.46 21.56 22.7 21.37 22.93 21.25C23.16 21.11 23.39 21.04 23.64 21.04C23.83 21.04 24.03 21.08 24.25 21.17C24.47 21.26 24.7 21.39 24.95 21.56L28.26 23.91C28.52 24.09 28.7 24.3 28.81 24.55C28.91 24.8 28.97 25.05 28.97 25.33Z" stroke="white" stroke-width="1.5" stroke-miterlimit="10"/>
</svg>
