<?xml version="1.0" encoding="iso-8859-1"?>

<!DOCTYPE svg PUBLIC "-//W3C//DTD SVG 1.1//EN" "http://www.w3.org/Graphics/SVG/1.1/DTD/svg11.dtd">
<!-- Uploaded to: SVG Repo, www.svgrepo.com, Generator: SVG Repo Mixer Tools -->
<svg version="1.1" id="_x35_" xmlns="http://www.w3.org/2000/svg" xmlns:xlink="http://www.w3.org/1999/xlink" 
	 viewBox="0 0 512 512"  xml:space="preserve">
<g>
	<rect x="201.495" y="112.458" style="fill:#EED996;" width="50.866" height="274.663"/>
	<rect x="201.495" y="175.566" style="fill:#F8E5B0;" width="50.866" height="14.563"/>
	<rect x="201.495" y="210.743" style="fill:#F8E5B0;" width="50.866" height="14.563"/>
	<rect x="201.495" y="252.955" style="fill:#F8E5B0;" width="50.866" height="14.563"/>
	<g>
		<path style="fill:#A6CD4C;" d="M280.292,108.025c22.654-3.447,52.555-2.955,87.38,9.498
			c-13.86-43.479-58.183-60.294-95.752-59.168c16.744-12.805,38.695-23.92,66.626-27.86c1.055-0.211,2.181-0.352,3.307-0.493
			c-7.95-12.171-17.869-20.192-28.564-24.835c-8.724-3.799-17.94-5.347-27.156-5.066c-23.428,0.422-46.505,12.312-59.239,28.212
			c-23.921-29.901-84.144-45.519-114.959,1.688c29.549,3.518,52.555,15.056,70.003,28.353c-37.64-1.126-81.893,15.689-95.823,59.168
			c34.825-12.453,64.796-12.945,87.379-9.498c-19.066,10.412-36.655,27.79-44.886,49.6c-5.417,14.282-6.894,30.393-2.11,47.7
			c25.046-31.941,53.258-47.067,74.997-54.173c10.272-3.377,19.137-4.925,25.398-5.699c6.332,0.774,15.126,2.392,25.468,5.699v0.07
			c1.689,0.492,3.448,1.126,5.207,1.759c2.532,0.985,5.206,2.04,7.95,3.307c1.407,0.563,2.743,1.196,4.15,1.899
			c1.477,0.633,2.955,1.337,4.432,2.111c17.166,9.005,35.951,23.006,53.258,45.027C339.32,161.424,311.81,125.262,280.292,108.025z
			 M226.893,102.397l-0.211-0.774l0.211-0.563l0.211,0.563L226.893,102.397z"/>
		<path style="fill:#9CC030;" d="M280.325,108.033c22.604-3.422,52.539-2.989,87.379,9.464
			c-13.92-43.453-58.194-60.29-95.803-59.124c17.41-13.291,40.454-24.872,69.977-28.355c-30.787-47.249-91.041-31.612-114.971-1.711
			v72.78l0.192,0.543l-0.192,0.783v43.037c19.643,2.315,63.573,12.828,100.419,59.856
			C339.343,161.417,311.819,125.268,280.325,108.033z"/>
	</g>
	<g>
		<path style="fill:#C0D96A;" d="M435.423,422.509c-5.065,4.573-11.116,8.161-20.544,8.231
			c-26.383,0.07-26.453-28.071-52.836-28.071c-26.383,0.07-26.313,28.212-52.695,28.283c-26.383,0.07-26.453-28.071-52.836-28.001
			c-15.337,0-21.809,9.568-29.619,17.518c-5.699,5.699-12.101,10.694-23.147,10.694c-26.383,0.07-26.383-28.071-52.766-28.001
			c-26.383,0.07-26.383,28.212-52.766,28.283c-26.313,0-26.383-28.142-52.766-28.071c-11.256,0.07-17.659,5.206-23.428,11.046
			c33.067-69.229,100.044-119.04,179.474-127.904c8.302-0.915,16.815-1.407,25.398-1.407c8.583,0,17.096,0.492,25.468,1.407
			c36.092,4.01,69.58,16.533,98.496,35.529c2.111,1.266,4.151,2.673,6.121,4.151c2.04,1.407,4.01,2.885,5.98,4.362
			c1.97,1.478,3.94,2.955,5.84,4.503c1.899,1.548,3.799,3.166,5.699,4.714c5.628,4.784,10.975,9.85,16.04,15.197
			c3.518,3.518,6.754,7.176,9.921,10.975c1.547,1.829,3.096,3.729,4.643,5.699c1.548,1.97,3.025,3.869,4.503,5.91
			c1.337,1.759,2.603,3.588,3.87,5.417c0.212,0.281,0.422,0.563,0.634,0.915c1.337,1.9,2.603,3.87,3.869,5.839
			c0.915,1.337,1.759,2.744,2.603,4.151c1.126,1.759,2.181,3.588,3.237,5.417c2.251,3.87,4.362,7.88,6.331,11.96
			c0.774,1.477,1.478,2.955,2.181,4.432C433.383,417.936,434.438,420.188,435.423,422.509z"/>
		<path style="fill:#C1E5F2;" d="M453.786,512H0c0-4.292,0.141-8.583,0.422-12.875c0.352-6.684,1.055-13.297,1.97-19.84
			c17.166-5.839,20.403-26.594,43.057-26.664c26.383-0.07,26.453,28.071,52.766,28.071c26.383-0.07,26.383-28.212,52.766-28.282
			c26.383-0.07,26.383,28.071,52.766,28.001c11.046,0,17.448-4.995,23.147-10.694c7.81-7.95,14.282-17.518,29.619-17.518
			c26.383-0.07,26.453,28.071,52.836,28.001c26.383-0.07,26.313-28.212,52.695-28.282c26.383,0,26.453,28.142,52.836,28.071
			c17.307-0.07,23.287-12.101,32.785-20.473C451.605,476.401,453.786,493.919,453.786,512z"/>
		<path style="fill:#BEA666;" d="M447.665,459.516c-9.498,8.372-15.478,20.403-32.785,20.473
			c-26.383,0.07-26.453-28.071-52.836-28.071c-26.383,0.07-26.313,28.212-52.695,28.282c-26.383,0.07-26.453-28.071-52.836-28.001
			c-15.337,0-21.809,9.568-29.619,17.518c-5.699,5.699-12.101,10.694-23.147,10.694c-26.383,0.07-26.383-28.071-52.766-28.001
			c-26.383,0.07-26.383,28.212-52.766,28.282c-26.313,0-26.383-28.142-52.766-28.071c-22.653,0.07-25.89,20.825-43.057,26.664
			c3.307-22.865,9.99-44.675,19.629-64.867c5.769-5.839,12.172-10.975,23.428-11.046c26.383-0.07,26.453,28.071,52.766,28.071
			c26.383-0.07,26.383-28.212,52.766-28.283c26.383-0.07,26.383,28.071,52.766,28.001c11.046,0,17.448-4.995,23.147-10.694
			c7.81-7.95,14.282-17.518,29.619-17.518c26.383-0.07,26.453,28.071,52.836,28.001c26.383-0.07,26.313-28.212,52.695-28.283
			c26.383,0,26.453,28.142,52.836,28.071c9.428-0.07,15.479-3.658,20.544-8.231C440.559,434.329,444.569,446.711,447.665,459.516z"
			/>
	</g>
	<path style="opacity:0.1;fill:#231815;" d="M226.907,101.086l0.192,0.543l-0.192,0.783V512H453.8
		c0-18.073-2.178-35.627-6.17-52.477c-3.03-12.796-7.104-25.181-12.202-37.035c-31.529-73.35-100.654-126.593-183.093-135.811
		v-19.158V252.96v-27.654v-14.558v-20.619V175.57v-24.387c21.724,7.128,49.983,22.202,74.991,54.122
		c12.017-43.889-15.507-80.038-47.001-97.273c22.604-3.422,52.539-2.989,87.379,9.464c-13.92-43.453-58.194-60.29-95.803-59.124
		c17.41-13.291,40.454-24.872,69.977-28.355c-30.787-47.249-91.041-31.612-114.971-1.711V101.086z"/>
</g>
</svg>